<svg xmlns="http://www.w3.org/2000/svg" xmlns:xlink="http://www.w3.org/1999/xlink" version="1.1" class="marks" width="975" height="629" viewBox="0 0 975 629"><rect width="975" height="629" fill="white"/><g fill="none" stroke-miterlimit="10" transform="translate(5,23)"><g class="mark-group role-frame root" role="graphics-object" aria-roledescription="group mark container"><g transform="translate(0,0)"><path class="background" aria-hidden="true" d="M0,0h800v600h-800Z"/><g><g class="mark-shape role-mark layer_0_marks" role="graphics-object" aria-roledescription="shape mark container"><path aria-label="Enrollment % (Low Income): 6.24657534247; County: Siskiyou; CS Enrollment %: 6.25; Income: $55,499; AP CS Students: 0; Non-AP CS Students: 114; Overall Enrollment: 1,825" role="graphics-symbol" aria-roledescription="geoshape" transform="translate(0,0)" d="M334.223,21.602L367.08,31.422L355.137,74.959L313.339,63.275L316.149,56.136L313.2,52.529L301.731,58.783L298.504,57.722L293.516,61.645L294.144,68.479L289.288,66.627L287.556,62.016L282.45,60.515L277.432,52.996L277.72,42.19L270.756,39.27L273.995,35.632L272.194,29.863L276.232,20.988L276.03,15.543L282.835,12.694L286.064,7.996L297.429,11.239Z" fill="rgb(252, 132, 100)" stroke="black" stroke-width="0.5"/><path aria-label="Enrollment % (Low Income): 0.785545954438; County: Del Norte; CS Enrollment %: 0.79; Income: $66,780; AP CS Students: 0; Non-AP CS Students: 10; Overall Enrollment: 1,273" role="graphics-symbol" aria-roledescription="geoshape" transform="translate(0,0)" d="M286.064,7.996L282.835,12.694L276.03,15.543L276.232,20.988L272.194,29.863L273.995,35.632L270.756,39.27L266.368,38.016L267.717,33.532L256.028,30.026L256.97,14.852L253.851,11.03L259.062,0L274.229,4.792Z" fill="rgb(253, 193, 170)" stroke="black" stroke-width="0.5"/><path aria-label="Enrollment % (Low Income): 0; County: Modoc; CS Enrollment %: 0.00; Income: $56,648; AP CS Students: 0; Non-AP CS Students: 0; Overall Enrollment: 411" role="graphics-symbol" aria-roledescription="geoshape" transform="translate(0,0)" d="M389.285,37.627L423.882,46.632L412.633,90.231L359.559,76.138L355.137,74.959L367.08,31.422Z" fill="rgb(253, 201, 180)" stroke="black" stroke-width="0.5"/><path aria-label="Enrollment % (Low Income): 7.53749762673; County: Humboldt; CS Enrollment %: 7.54; Income: $61,135; AP CS Students: 0; Non-AP CS Students: 397; Overall Enrollment: 5,267" role="graphics-symbol" aria-roledescription="geoshape" transform="translate(0,0)" d="M270.756,39.27L277.72,42.19L277.432,52.996L273.652,57.942L274.317,61.937L270.408,66.254L264.993,63.673L264.952,75.216L253.348,114.126L234.08,108.358L232.278,101.91L224.809,90.505L225.888,80.403L235.55,68.227L242.009,63.867L238.5,65.697L245.434,56.706L245.969,49.882L250.796,42.153L256.028,30.026L267.717,33.532L266.368,38.016Z" fill="rgb(250, 117, 86)" stroke="black" stroke-width="0.5"/><path aria-label="Enrollment % (Low Income): 4.30879712747; County: Trinity; CS Enrollment %: 4.31; Income: $53,498; AP CS Students: 0; Non-AP CS Students: 24; Overall Enrollment: 557" role="graphics-symbol" aria-roledescription="geoshape" transform="translate(0,0)" d="M313.339,63.275L313.763,68.237L309.958,68.637L304.723,77.751L295.725,86.991L296.088,93.776L281.716,98.37L277.091,104.608L279.85,107.965L277.922,112.97L277.457,122.601L252.947,115.471L253.348,114.126L264.952,75.216L264.993,63.673L270.408,66.254L274.317,61.937L273.652,57.942L277.432,52.996L282.45,60.515L287.556,62.016L289.288,66.627L294.144,68.479L293.516,61.645L298.504,57.722L301.731,58.783L313.2,52.529L316.149,56.136Z" fill="rgb(252, 154, 124)" stroke="black" stroke-width="0.5"/><path aria-label="Enrollment % (Low Income): 3.56435643564; County: Lassen; CS Enrollment %: 3.56; Income: $64,395; AP CS Students: 0; Non-AP CS Students: 36; Overall Enrollment: 1,010" role="graphics-symbol" aria-roledescription="geoshape" transform="translate(0,0)" d="M412.633,90.231L392.332,168.913L386.01,168.078L390.991,156.072L388.828,147.087L384.015,144.163L376.725,132.457L369.643,128.846L361.366,133.74L356.951,128.841L359.706,118.637L349.037,115.803L356.059,91.204L359.559,76.138Z" fill="rgb(252, 163, 134)" stroke="black" stroke-width="0.5"/><path aria-label="Enrollment % (Low Income): 8.85280872245; County: Shasta; CS Enrollment %: 8.85; Income: $71,931; AP CS Students: 100; Non-AP CS Students: 647; Overall Enrollment: 8,438" role="graphics-symbol" aria-roledescription="geoshape" transform="translate(0,0)" d="M355.137,74.959L359.559,76.138L356.059,91.204L349.037,115.803L342.275,113.951L321.44,109.247L308.538,108.799L300.161,105.508L294.095,107.151L291.221,104.178L277.091,104.608L281.716,98.37L296.088,93.776L295.725,86.991L304.723,77.751L309.958,68.637L313.763,68.237L313.339,63.275Z" fill="rgb(248, 101, 73)" stroke="black" stroke-width="0.5"/><path aria-label="Enrollment % (Low Income): 18.1667220193; County: Tehama; CS Enrollment %: 18.17; Income: $61,834; AP CS Students: 0; Non-AP CS Students: 547; Overall Enrollment: 3,011" role="graphics-symbol" aria-roledescription="geoshape" transform="translate(0,0)" d="M342.275,113.951L341.867,119.381L345.198,120.789L344.045,127.841L339.953,130.311L333.566,131.496L329.238,137.024L321.559,140.533L311.85,137.849L310.533,142.535L274.515,132.165L277.457,122.601L277.922,112.97L279.85,107.965L277.091,104.608L291.221,104.178L294.095,107.151L300.161,105.508L308.538,108.799L321.44,109.247Z" fill="rgb(176, 17, 24)" stroke="black" stroke-width="0.5"/><path aria-label="Enrollment % (Low Income): 2.38450074516; County: Plumas; CS Enrollment %: 2.38; Income: $64,946; AP CS Students: 0; Non-AP CS Students: 16; Overall Enrollment: 671" role="graphics-symbol" aria-roledescription="geoshape" transform="translate(0,0)" d="M349.037,115.803L359.706,118.637L356.951,128.841L361.366,133.74L369.643,128.846L376.725,132.457L384.015,144.163L388.828,147.087L390.991,156.072L386.01,168.078L365.417,162.826L363.991,164.085L357.707,156.659L350.161,162.674L346.817,164.061L337.004,143.902L341.248,136.363L339.953,130.311L344.045,127.841L345.198,120.789L341.867,119.381L342.275,113.951Z" fill="rgb(252, 176, 149)" stroke="black" stroke-width="0.5"/><path aria-label="Enrollment % (Low Income): 4.60927960928; County: Butte; CS Enrollment %: 4.61; Income: $68,574; AP CS Students: 0; Non-AP CS Students: 453; Overall Enrollment: 9,828" role="graphics-symbol" aria-roledescription="geoshape" transform="translate(0,0)" d="M346.817,164.061L342.195,167.266L336.508,165.72L331.516,173.089L320.075,174.127L308.666,170.459L310.585,166.405L314.485,158.623L308.6,157.226L310.666,149.863L313.287,148.891L310.533,142.535L311.85,137.849L321.559,140.533L329.238,137.024L333.566,131.496L339.953,130.311L341.248,136.363L337.004,143.902Z" fill="rgb(252, 151, 120)" stroke="black" stroke-width="0.5"/><path aria-label="Enrollment % (Low Income): 6.67335674862; County: Mendocino; CS Enrollment %: 6.67; Income: $64,688; AP CS Students: 0; Non-AP CS Students: 266; Overall Enrollment: 3,986" role="graphics-symbol" aria-roledescription="geoshape" transform="translate(0,0)" d="M253.348,114.126L252.947,115.471L277.457,122.601L274.515,132.165L273.195,144.255L272.394,147.009L264.987,146.497L262.929,151.373L262.71,161.3L256.952,169.079L260.013,174.332L260.262,180.007L264.749,184.236L253.955,180.935L250.785,182.527L241.504,180.009L234.04,179.941L228.617,167.745L231.809,164.523L231.48,145.581L236.787,136.353L238.24,119.509L234.08,108.358Z" fill="rgb(251, 127, 96)" stroke="black" stroke-width="0.5"/><path aria-label="Enrollment % (Low Income): 4.7323943662; County: Glenn; CS Enrollment %: 4.73; Income: $70,487; AP CS Students: 11; Non-AP CS Students: 73; Overall Enrollment: 1,775" role="graphics-symbol" aria-roledescription="geoshape" transform="translate(0,0)" d="M310.533,142.535L313.287,148.891L310.666,149.863L308.6,157.226L314.485,158.623L310.585,166.405L300.99,161.943L300.56,163.466L276.2,156.696L279.405,146.148L273.195,144.255L274.515,132.165Z" fill="rgb(252, 150, 119)" stroke="black" stroke-width="0.5"/><path aria-label="Enrollment % (Low Income): 0; County: Sierra; CS Enrollment %: 0.00; Income: $60,000; AP CS Students: 0; Non-AP CS Students: 0; Overall Enrollment: 125" role="graphics-symbol" aria-roledescription="geoshape" transform="translate(0,0)" d="M386.01,168.078L392.332,168.913L388.38,183.626L367.873,178.338L366.511,174.024L362.704,172.459L357.562,175.326L346.219,175.564L350.161,162.674L357.707,156.659L363.991,164.085L365.417,162.826Z" fill="rgb(253, 201, 180)" stroke="black" stroke-width="0.5"/><path aria-label="Enrollment % (Low Income): 0.882658359294; County: Yuba; CS Enrollment %: 0.88; Income: $73,313; AP CS Students: 0; Non-AP CS Students: 34; Overall Enrollment: 3,852" role="graphics-symbol" aria-roledescription="geoshape" transform="translate(0,0)" d="M350.161,162.674L346.219,175.564L341.616,175.187L333.15,181.494L330.291,191.987L324.301,192.549L316.441,194.138L320.075,174.127L331.516,173.089L336.508,165.72L342.195,167.266L346.817,164.061Z" fill="rgb(253, 192, 169)" stroke="black" stroke-width="0.5"/><path aria-label="Enrollment % (Low Income): 8.80306193459; County: Lake; CS Enrollment %: 8.80; Income: $58,738; AP CS Students: 1; Non-AP CS Students: 252; Overall Enrollment: 2,874" role="graphics-symbol" aria-roledescription="geoshape" transform="translate(0,0)" d="M276.2,156.696L273.799,159.547L276.691,166.477L283.626,170.923L281.145,176.832L285.365,185.897L282.111,188.419L276.886,196.156L269.706,196.242L264.749,184.236L260.262,180.007L260.013,174.332L256.952,169.079L262.71,161.3L262.929,151.373L264.987,146.497L272.394,147.009L273.195,144.255L279.405,146.148Z" fill="rgb(248, 102, 74)" stroke="black" stroke-width="0.5"/><path aria-label="Enrollment % (Low Income): 0; County: Colusa; CS Enrollment %: 0.00; Income: $75,149; AP CS Students: 0; Non-AP CS Students: 0; Overall Enrollment: 1,410" role="graphics-symbol" aria-roledescription="geoshape" transform="translate(0,0)" d="M310.585,166.405L308.666,170.459L306.085,172.933L305.947,183.008L307.829,184.184L306.061,191.663L285.365,185.897L281.145,176.832L283.626,170.923L276.691,166.477L273.799,159.547L276.2,156.696L300.56,163.466L300.99,161.943Z" fill="rgb(253, 201, 180)" stroke="black" stroke-width="0.5"/><path aria-label="Enrollment % (Low Income): 1.58947656892; County: Sutter; CS Enrollment %: 1.59; Income: $75,450; AP CS Students: 0; Non-AP CS Students: 116; Overall Enrollment: 7,298" role="graphics-symbol" aria-roledescription="geoshape" transform="translate(0,0)" d="M320.075,174.127L316.441,194.138L324.301,192.549L320.9,195.737L317.363,205.734L312.658,204.407L309.44,201.719L309.343,196.359L306.061,191.663L307.829,184.184L305.947,183.008L306.085,172.933L308.666,170.459Z" fill="rgb(252, 184, 159)" stroke="black" stroke-width="0.5"/><path aria-label="Enrollment % (Low Income): 0.857719475277; County: Tuolumne; CS Enrollment %: 0.86; Income: $72,259; AP CS Students: 0; Non-AP CS Students: 17; Overall Enrollment: 1,982" role="graphics-symbol" aria-roledescription="geoshape" transform="translate(0,0)" d="M387.829,247.853L386.376,254.822L389.052,258.675L396.481,263.875L396.237,270.56L400.217,276.298L398.853,281.132L395.248,283.435L394.117,280.935L386.518,271.844L379.57,275.97L368.931,275.718L362.567,270.034L353.755,273.177L350.068,272.584L346.966,277.084L338.676,263.585L346.073,258.587L360.854,244.146L367.937,238.888L373.594,237.852L378.154,243.532L384.448,241.842Z" fill="rgb(253, 192, 169)" stroke="black" stroke-width="0.5"/><path aria-label="Enrollment % (Low Income): 3.97436651185; County: Stanislaus; CS Enrollment %: 3.97; Income: $79,661; AP CS Students: 335; Non-AP CS Students: 1017; Overall Enrollment: 34,018" role="graphics-symbol" aria-roledescription="geoshape" transform="translate(0,0)" d="M346.966,277.084L318.859,283.065L318.78,286.355L304.641,294.449L303.199,291.425L297.545,291.398L297.32,283.962L299.818,283.098L299.638,273.164L316.294,263.986L323.307,263.559L326.293,265.569L331.025,247.346L338.676,263.585Z" fill="rgb(252, 158, 128)" stroke="black" stroke-width="0.5"/><path aria-label="Enrollment % (Low Income): 0; County: Mariposa; CS Enrollment %: 0.00; Income: $65,378; AP CS Students: 0; Non-AP CS Students: 0; Overall Enrollment: 555" role="graphics-symbol" aria-roledescription="geoshape" transform="translate(0,0)" d="M394.117,280.935L379.739,289.794L374.908,296.831L370.243,295.612L355.111,305.052L350.599,299.468L346.966,277.084L350.068,272.584L353.755,273.177L362.567,270.034L368.931,275.718L379.57,275.97L386.518,271.844Z" fill="rgb(253, 201, 180)" stroke="black" stroke-width="0.5"/><path aria-label="Enrollment % (Low Income): 3.21774445486; County: Madera; CS Enrollment %: 3.22; Income: $75,496; AP CS Students: 27; Non-AP CS Students: 282; Overall Enrollment: 9,603" role="graphics-symbol" aria-roledescription="geoshape" transform="translate(0,0)" d="M395.248,283.435L401.587,285.537L403.567,294.309L389.754,302.854L382.449,314.054L375.215,315.281L365.43,319.517L360.21,325.399L343.201,325.422L335.878,323.046L332.13,307.138L335.74,305.092L344.39,304.118L355.111,305.052L370.243,295.612L374.908,296.831L379.739,289.794L394.117,280.935Z" fill="rgb(252, 167, 138)" stroke="black" stroke-width="0.5"/><path aria-label="Enrollment % (Low Income): 5.87909040488; County: Merced; CS Enrollment %: 5.88; Income: $65,044; AP CS Students: 0; Non-AP CS Students: 1060; Overall Enrollment: 18,030" role="graphics-symbol" aria-roledescription="geoshape" transform="translate(0,0)" d="M355.111,305.052L344.39,304.118L335.74,305.092L332.13,307.138L311.902,319.19L303.928,311.408L302.689,304.013L304.641,294.449L318.78,286.355L318.859,283.065L346.966,277.084L350.599,299.468Z" fill="rgb(252, 136, 105)" stroke="black" stroke-width="0.5"/><path aria-label="Enrollment % (Low Income): 4.67894556211; County: Fresno; CS Enrollment %: 4.68; Income: $71,434; AP CS Students: 377; Non-AP CS Students: 2486; Overall Enrollment: 61,189" role="graphics-symbol" aria-roledescription="geoshape" transform="translate(0,0)" d="M412.197,303.445L410.312,309.845L414.224,315.504L412.812,321.311L421.408,328.954L421.689,341.19L420.13,346.346L393.997,340.236L392.874,344.79L379.324,341.332L377.866,345.864L371.008,344.11L365.252,347.617L360.624,350.48L347.834,348.316L344.817,360.032L325.795,370.893L314.609,356.735L316.545,351.285L315.448,347.409L319.831,345.048L322.102,336.471L311.902,319.19L332.13,307.138L335.878,323.046L343.201,325.422L360.21,325.399L365.43,319.517L375.215,315.281L382.449,314.054L389.754,302.854L403.567,294.309Z" fill="rgb(252, 150, 120)" stroke="black" stroke-width="0.5"/><path aria-label="Enrollment % (Low Income): 0.879877582249; County: Inyo; CS Enrollment %: 0.88; Income: $72,432; AP CS Students: 0; Non-AP CS Students: 23; Overall Enrollment: 2,614" role="graphics-symbol" aria-roledescription="geoshape" transform="translate(0,0)" d="M451.975,312.864L474.082,346.131L517.126,410.811L525.341,423.381L521.592,423.447L479.647,414.386L439.351,405.228L423.294,401.997L426.15,394.723L424.99,392.731L426.405,371.612L422.659,364.858L420.13,346.346L421.689,341.19L421.408,328.954L412.812,321.311L414.224,315.504L410.312,309.845L412.197,303.445Z" fill="rgb(253, 192, 169)" stroke="black" stroke-width="0.5"/><path aria-label="Enrollment % (Low Income): 3.83953223973; County: Tulare; CS Enrollment %: 3.84; Income: $69,489; AP CS Students: 50; Non-AP CS Students: 1132; Overall Enrollment: 30,785" role="graphics-symbol" aria-roledescription="geoshape" transform="translate(0,0)" d="M423.294,401.997L357.405,385.715L364.242,359.964L366.525,360.602L368.482,353.486L365.252,347.617L371.008,344.11L377.866,345.864L379.324,341.332L392.874,344.79L393.997,340.236L420.13,346.346L422.659,364.858L426.405,371.612L424.99,392.731L426.15,394.723Z" fill="rgb(252, 160, 130)" stroke="black" stroke-width="0.5"/><path aria-label="Enrollment % (Low Income): 1.80200473026; County: Kings; CS Enrollment %: 1.80; Income: $68,750; AP CS Students: 0; Non-AP CS Students: 160; Overall Enrollment: 8,879" role="graphics-symbol" aria-roledescription="geoshape" transform="translate(0,0)" d="M357.405,385.715L329.369,378.585L328.438,378.374L325.795,370.893L344.817,360.032L347.834,348.316L360.624,350.48L365.252,347.617L368.482,353.486L366.525,360.602L364.242,359.964Z" fill="rgb(252, 182, 157)" stroke="black" stroke-width="0.5"/><path aria-label="Enrollment % (Low Income): 2.4206411807; County: Kern; CS Enrollment %: 2.42; Income: $67,660; AP CS Students: 0; Non-AP CS Students: 1381; Overall Enrollment: 57,051" role="graphics-symbol" aria-roledescription="geoshape" transform="translate(0,0)" d="M439.351,405.228L427.306,457.933L425.738,457.57L372.283,445.079L372.354,446.817L368.609,444.513L356.911,441.519L356.381,437.665L349.473,434.793L348.084,434.382L350.492,424.832L346.913,423.281L348.454,418.498L343.433,417.44L344.624,412.753L338.288,411.044L339.495,406.33L336.538,405.634L337.748,400.92L332.821,399.56L330.184,393.821L331.389,389.167L326.786,387.879L329.369,378.585L357.405,385.715L423.294,401.997Z" fill="rgb(252, 175, 149)" stroke="black" stroke-width="0.5"/><path aria-label="Enrollment % (Low Income): 5.51735428946; County: Imperial; CS Enrollment %: 5.52; Income: $56,393; AP CS Students: 6; Non-AP CS Students: 668; Overall Enrollment: 12,216" role="graphics-symbol" aria-roledescription="geoshape" transform="translate(0,0)" d="M544.775,585.097L545.831,591.679L541.395,599.665L532.226,600L468.552,592.465L474.02,567.785L474.998,567.934L478.763,548.816L544.197,561.782L539.347,562.64L538.112,567.983L539.822,572.85L536.731,579.949L538.381,583.466Z" fill="rgb(252, 141, 109)" stroke="black" stroke-width="0.5"/></g><g class="mark-shape role-mark layer_1_marks" role="graphics-object" aria-roledescription="shape mark container"><path aria-label="Enrollment % (High Income): 3.74712643678; County: Nevada; CS Enrollment %: 3.75; Income: $84,905; AP CS Students: 0; Non-AP CS Students: 163; Overall Enrollment: 4,350" role="graphics-symbol" aria-roledescription="geoshape" transform="translate(0,0)" d="M388.38,183.626L386.397,190.704L360.147,183.865L345.53,189.795L339.671,195.768L330.291,191.987L333.15,181.494L341.616,175.187L346.219,175.564L357.562,175.326L362.704,172.459L366.511,174.024L367.873,178.338Z" fill="rgb(174, 222, 168)" stroke="black" stroke-width="0.5"/><path aria-label="Enrollment % (High Income): 7.29086722947; County: Placer; CS Enrollment %: 7.29; Income: $114,678; AP CS Students: 131; Non-AP CS Students: 1579; Overall Enrollment: 23,454" role="graphics-symbol" aria-roledescription="geoshape" transform="translate(0,0)" d="M386.397,190.704L384.453,198.841L383.722,201.676L383.094,204.107L377.353,202.62L372.754,203.986L364.882,201.616L357.951,206.402L350.934,199.005L346.432,201.112L338.541,201.126L331.174,210.835L317.363,205.734L320.9,195.737L324.301,192.549L330.291,191.987L339.671,195.768L345.53,189.795L360.147,183.865Z" fill="rgb(132, 203, 132)" stroke="black" stroke-width="0.5"/><path aria-label="Enrollment % (High Income): 5.12393019896; County: El Dorado; CS Enrollment %: 5.12; Income: $106,190; AP CS Students: 0; Non-AP CS Students: 461; Overall Enrollment: 8,997" role="graphics-symbol" aria-roledescription="geoshape" transform="translate(0,0)" d="M383.094,204.107L382.286,207.848L385.211,212.365L385.478,216.228L375.214,223.024L375.043,223.073L365.249,228.523L349.302,227.727L341.975,222.499L333.095,223.085L331.174,210.835L338.541,201.126L346.432,201.112L350.934,199.005L357.951,206.402L364.882,201.616L372.754,203.986L377.353,202.62Z" fill="rgb(158, 215, 154)" stroke="black" stroke-width="0.5"/><path aria-label="Enrollment % (High Income): 3.98656700249; County: Yolo; CS Enrollment %: 3.99; Income: $88,818; AP CS Students: 0; Non-AP CS Students: 368; Overall Enrollment: 9,231" role="graphics-symbol" aria-roledescription="geoshape" transform="translate(0,0)" d="M306.061,191.663L309.343,196.359L309.44,201.719L312.658,204.407L310.672,206.432L313.51,215.708L310.527,225.393L306.555,227.088L302.737,225.908L305.857,214.649L295.934,211.451L288.711,210.54L288.711,210.54L286.144,190.965L282.111,188.419L285.365,185.897Z" fill="rgb(171, 221, 165)" stroke="black" stroke-width="0.5"/><path aria-label="Enrollment % (High Income): 5.17165814463; County: Napa; CS Enrollment %: 5.17; Income: $108,970; AP CS Students: 151; Non-AP CS Students: 203; Overall Enrollment: 6,845" role="graphics-symbol" aria-roledescription="geoshape" transform="translate(0,0)" d="M288.711,210.54L288.703,210.568L286.38,214.85L287.495,221.652L281.58,219.984L279.46,228.607L275.616,227.487L275.172,227.361L271.009,226.238L270.746,226.039L273.998,223.05L273.591,218.305L267.987,199.447L269.706,196.242L276.886,196.156L282.111,188.419L286.144,190.965Z" fill="rgb(158, 215, 153)" stroke="black" stroke-width="0.5"/><path aria-label="Enrollment % (High Income): 3.43291281715; County: Sonoma; CS Enrollment %: 3.43; Income: $102,840; AP CS Students: 110; Non-AP CS Students: 622; Overall Enrollment: 21,323" role="graphics-symbol" aria-roledescription="geoshape" transform="translate(0,0)" d="M264.749,184.236L269.706,196.242L267.987,199.447L273.591,218.305L273.998,223.05L270.746,226.039L266.353,227.394L264.98,224.359L257.894,219.488L253.174,212.022L248.35,211.55L245.742,201.881L241.573,197.041L234.04,179.941L241.504,180.009L250.785,182.527L253.955,180.935Z" fill="rgb(177, 224, 171)" stroke="black" stroke-width="0.5"/><path aria-label="Enrollment % (High Income): 2.04996541265; County: Sacramento; CS Enrollment %: 2.05; Income: $88,724; AP CS Students: 159; Non-AP CS Students: 1382; Overall Enrollment: 75,172" role="graphics-symbol" aria-roledescription="geoshape" transform="translate(0,0)" d="M333.095,223.085L330.046,234.395L315.978,234.572L311.096,231.438L304.565,238.35L300.027,237.995L302.241,233.461L306.555,227.088L310.527,225.393L313.51,215.708L310.672,206.432L312.658,204.407L317.363,205.734L331.174,210.835Z" fill="rgb(191, 230, 185)" stroke="black" stroke-width="0.5"/><path aria-label="Enrollment % (High Income): 1.92307692308; County: Mono; CS Enrollment %: 1.92; Income: $86,953; AP CS Students: 7; Non-AP CS Students: 8; Overall Enrollment: 780" role="graphics-symbol" aria-roledescription="geoshape" transform="translate(0,0)" d="M403.612,239.846L409.124,248.151L432.631,283.616L451.975,312.864L412.197,303.445L403.567,294.309L401.587,285.537L395.248,283.435L398.853,281.132L400.217,276.298L396.237,270.56L396.481,263.875L389.052,258.675L386.376,254.822L387.829,247.853L393.901,240.76L393.62,230.023L395.585,227.871Z" fill="rgb(193, 230, 187)" stroke="black" stroke-width="0.5"/><path aria-label="Enrollment % (High Income): 9.01515151515; County: Amador; CS Enrollment %: 9.02; Income: $81,526; AP CS Students: 0; Non-AP CS Students: 119; Overall Enrollment: 1,320" role="graphics-symbol" aria-roledescription="geoshape" transform="translate(0,0)" d="M375.043,223.073L375.214,223.024L375.043,223.073L372.526,233.41L357.775,231.663L348.551,233.556L346.974,236.508L339.117,237.355L334.29,239.93L330.333,238.65L330.046,234.395L333.095,223.085L341.975,222.499L349.302,227.727L365.249,228.523Z" fill="rgb(109, 192, 116)" stroke="black" stroke-width="0.5"/><path aria-label="Enrollment % (High Income): 4.99226405364; County: Solano; CS Enrollment %: 4.99; Income: $99,994; AP CS Students: 141; Non-AP CS Students: 827; Overall Enrollment: 19,390" role="graphics-symbol" aria-roledescription="geoshape" transform="translate(0,0)" d="M275.172,227.361L276.253,232.017L271.009,226.238ZM306.555,227.088L302.241,233.461L294.678,238.247L289.881,237.653L285.048,231.488L280.58,235.414L276.403,232.618L275.616,227.487L279.46,228.607L281.58,219.984L287.495,221.652L286.38,214.85L288.703,210.568L288.711,210.54L295.934,211.451L305.857,214.649L302.737,225.908Z" fill="rgb(160, 216, 155)" stroke="black" stroke-width="0.5"/><path aria-label="Enrollment % (High Income): 3.3484676504; County: Calaveras; CS Enrollment %: 3.35; Income: $79,877; AP CS Students: 0; Non-AP CS Students: 59; Overall Enrollment: 1,762" role="graphics-symbol" aria-roledescription="geoshape" transform="translate(0,0)" d="M372.526,233.41L373.594,237.852L367.937,238.888L360.854,244.146L346.073,258.587L338.676,263.585L331.025,247.346L330.333,238.65L334.29,239.93L339.117,237.355L346.974,236.508L348.551,233.556L357.775,231.663Z" fill="rgb(178, 224, 172)" stroke="black" stroke-width="0.5"/><path aria-label="Enrollment % (High Income): 4.84266063689; County: Marin; CS Enrollment %: 4.84; Income: $142,785; AP CS Students: 146; Non-AP CS Students: 368; Overall Enrollment: 10,614" role="graphics-symbol" aria-roledescription="geoshape" transform="translate(0,0)" d="M264.98,224.359L266.847,227.909L263.244,237.135L265.327,240.528L260.673,242.74L251.478,230.013L247.125,226.196L243.868,226.896L247.648,221.648L248.35,211.55L253.174,212.022L257.894,219.488Z" fill="rgb(161, 217, 157)" stroke="black" stroke-width="0.5"/><path aria-label="Enrollment % (High Income): 3.40198681168; County: San Joaquin; CS Enrollment %: 3.40; Income: $88,531; AP CS Students: 58; Non-AP CS Students: 1531; Overall Enrollment: 46,708" role="graphics-symbol" aria-roledescription="geoshape" transform="translate(0,0)" d="M330.046,234.395L330.333,238.65L331.025,247.346L326.293,265.569L323.307,263.559L316.294,263.986L299.638,273.164L296.924,268.977L300.989,254.227L303.259,241.927L304.565,238.35L311.096,231.438L315.978,234.572Z" fill="rgb(177, 224, 171)" stroke="black" stroke-width="0.5"/><path aria-label="Enrollment % (High Income): 8.73885619648; County: Contra Costa; CS Enrollment %: 8.74; Income: $125,727; AP CS Students: 102; Non-AP CS Students: 4858; Overall Enrollment: 56,758" role="graphics-symbol" aria-roledescription="geoshape" transform="translate(0,0)" d="M303.259,241.927L300.989,254.227L282.671,254.813L280.446,249.564L276.655,248.186L270.939,241.132L268.208,237.186L276.051,233.295L279.24,236.185L284.946,235.836L294.7,241.045L303.257,238.454Z" fill="rgb(113, 194, 119)" stroke="black" stroke-width="0.5"/><path aria-label="Enrollment % (High Income): 9.90244747172; County: Alameda; CS Enrollment %: 9.90; Income: $126,240; AP CS Students: 792; Non-AP CS Students: 6070; Overall Enrollment: 69,296" role="graphics-symbol" aria-roledescription="geoshape" transform="translate(0,0)" d="M300.989,254.227L296.924,268.977L299.638,273.164L283.205,268.46L277.786,268.216L273.157,264.587L273.675,255.325L268.692,246.21L270.939,241.132L276.655,248.186L280.446,249.564L282.671,254.813Z" fill="rgb(97, 187, 109)" stroke="black" stroke-width="0.5"/><path aria-label="Enrollment % (High Income): 3.88644654382; County: San Francisco; CS Enrollment %: 3.89; Income: $141,446; AP CS Students: 308; Non-AP CS Students: 523; Overall Enrollment: 21,382" role="graphics-symbol" aria-roledescription="geoshape" transform="translate(0,0)" d="M264.48,250.262L260.16,249.027L260.742,245.308L265.293,244.589Z" fill="rgb(172, 222, 166)" stroke="black" stroke-width="0.5"/><path aria-label="Enrollment % (High Income): 5.15655678413; County: San Mateo; CS Enrollment %: 5.16; Income: $156,000; AP CS Students: 407; Non-AP CS Students: 1090; Overall Enrollment: 29,031" role="graphics-symbol" aria-roledescription="geoshape" transform="translate(0,0)" d="M264.48,250.262L264.211,256.865L268.088,259.116L272.448,266.529L268.819,267.367L268.091,275.67L267.027,279.437L259.692,279.005L259.676,283.629L256.278,275.05L259.021,268.841L258.765,261.807L256.643,259.055L260.16,249.027Z" fill="rgb(158, 215, 153)" stroke="black" stroke-width="0.5"/><path aria-label="Enrollment % (High Income): 7.93664016756; County: Santa Clara; CS Enrollment %: 7.94; Income: $159,674; AP CS Students: 1783; Non-AP CS Students: 4886; Overall Enrollment: 84,028" role="graphics-symbol" aria-roledescription="geoshape" transform="translate(0,0)" d="M299.638,273.164L299.818,283.098L297.32,283.962L297.545,291.398L303.199,291.425L304.641,294.449L302.689,304.013L291.534,299.726L286.396,303.053L281.319,293.245L271.688,283.605L268.091,275.67L268.819,267.367L272.448,266.529L277.786,268.216L283.205,268.46Z" fill="rgb(124, 199, 126)" stroke="black" stroke-width="0.5"/><path aria-label="Enrollment % (High Income): 4.60693825589; County: Santa Cruz; CS Enrollment %: 4.61; Income: $109,266; AP CS Students: 25; Non-AP CS Students: 554; Overall Enrollment: 12,568" role="graphics-symbol" aria-roledescription="geoshape" transform="translate(0,0)" d="M286.396,303.053L283.75,302.632L279.732,300.712L276.358,302.906L274.451,296.916L265.181,294.036L259.676,283.629L259.692,279.005L267.027,279.437L268.091,275.67L271.688,283.605L281.319,293.245Z" fill="rgb(164, 218, 159)" stroke="black" stroke-width="0.5"/><path aria-label="Enrollment % (High Income): 0; County: San Benito; CS Enrollment %: 0.00; Income: $108,289; AP CS Students: 0; Non-AP CS Students: 0; Overall Enrollment: 3,473" role="graphics-symbol" aria-roledescription="geoshape" transform="translate(0,0)" d="M302.689,304.013L303.928,311.408L311.902,319.19L322.102,336.471L319.831,345.048L315.448,347.409L313.011,344.288L313.298,350.577L305.523,342.347L300.54,343.852L300.695,340.243L294.945,330.113L292.01,327.704L293.19,321.585L287.952,315.722L289.184,314.201L283.75,302.632L286.396,303.053L291.534,299.726Z" fill="rgb(211, 238, 205)" stroke="black" stroke-width="0.5"/><path aria-label="Enrollment % (High Income): 11.1772338807; County: Monterey; CS Enrollment %: 11.18; Income: $94,486; AP CS Students: 512; Non-AP CS Students: 1986; Overall Enrollment: 22,349" role="graphics-symbol" aria-roledescription="geoshape" transform="translate(0,0)" d="M283.75,302.632L289.184,314.201L287.952,315.722L293.19,321.585L292.01,327.704L294.945,330.113L300.695,340.243L300.54,343.852L305.523,342.347L313.298,350.577L313.011,344.288L315.448,347.409L316.545,351.285L314.609,356.735L325.795,370.893L328.438,378.374L280.164,365.092L276.402,358.984L276.089,351.743L273.745,350.106L270.312,339.364L264.192,331.304L264.96,315.698L272.644,313.317L276.358,302.906L279.732,300.712Z" fill="rgb(81, 177, 100)" stroke="black" stroke-width="0.5"/><path aria-label="Enrollment % (High Income): 4.12392531273; County: San Bernardino; CS Enrollment %: 4.12; Income: $82,184; AP CS Students: 696; Non-AP CS Students: 4470; Overall Enrollment: 125,269" role="graphics-symbol" aria-roledescription="geoshape" transform="translate(0,0)" d="M560.792,476.538L559.268,483.386L564.928,493.783L567.854,509.071L575.191,518.853L568.574,524.861L559.842,528.046L520.576,520.51L520.088,522.875L448.504,507.672L448.139,509.301L434.966,506.331L420.732,501.45L413.619,509.077L409.647,503.867L412.813,500.319L419.962,486.764L422.427,471.841L425.738,457.57L427.306,457.933L439.351,405.228L479.647,414.386L521.592,423.447L525.341,423.381Z" fill="rgb(170, 220, 164)" stroke="black" stroke-width="0.5"/><path aria-label="Enrollment % (High Income): 4.58008425204; County: San Luis Obispo; CS Enrollment %: 4.58; Income: $93,398; AP CS Students: 10; Non-AP CS Students: 501; Overall Enrollment: 11,157" role="graphics-symbol" aria-roledescription="geoshape" transform="translate(0,0)" d="M328.438,378.374L329.369,378.585L326.786,387.879L331.389,389.167L330.184,393.821L332.821,399.56L337.748,400.92L336.538,405.634L339.495,406.33L338.288,411.044L344.624,412.753L343.433,417.44L348.454,418.498L346.913,423.281L350.492,424.832L348.084,434.382L337.545,427.552L323.792,415.941L317.879,419.555L312.182,419.764L312.536,424.762L306.79,418.164L298.246,417.172L300.988,409.963L291.446,399.727L295.649,395.784L293.891,388.761L289.752,386.937L285.25,375.483L280.556,372.721L280.164,365.092Z" fill="rgb(164, 218, 159)" stroke="black" stroke-width="0.5"/><path aria-label="Enrollment % (High Income): 4.0243902439; County: Santa Barbara; CS Enrollment %: 4.02; Income: $95,977; AP CS Students: 16; Non-AP CS Students: 809; Overall Enrollment: 20,500" role="graphics-symbol" aria-roledescription="geoshape" transform="translate(0,0)" d="M306.328,481.371L302.577,473.803L311.453,474.567L311.881,480.066ZM322.526,481.814L317.978,479.234L317.394,473.665L332.189,482.117ZM348.084,434.382L349.473,434.793L343.135,459.966L340.943,462.705L337.575,459.516L323.805,456.529L318.916,452.16L306.543,448.33L298.322,447.16L297.873,443.155L292.576,438.544L296.359,431.83L298.246,417.172L306.79,418.164L312.536,424.762L312.182,419.764L317.879,419.555L323.792,415.941L337.545,427.552Z" fill="rgb(171, 221, 165)" stroke="black" stroke-width="0.5"/><path aria-label="Enrollment % (High Income): 4.73989755265; County: Ventura; CS Enrollment %: 4.74; Income: $107,327; AP CS Students: 279; Non-AP CS Students: 1803; Overall Enrollment: 43,925" role="graphics-symbol" aria-roledescription="geoshape" transform="translate(0,0)" d="M359.674,486.182L349.178,477.868L348.248,470.873L340.943,462.705L343.135,459.966L349.473,434.793L356.381,437.665L356.911,441.519L368.609,444.513L372.354,446.817L376.663,476.858L373.443,482.552L368.252,481.225Z" fill="rgb(162, 217, 158)" stroke="black" stroke-width="0.5"/><path aria-label="Enrollment % (High Income): 5.01271672276; County: Los Angeles; CS Enrollment %: 5.01; Income: $87,760; AP CS Students: 5639; Non-AP CS Students: 17401; Overall Enrollment: 459,631" role="graphics-symbol" aria-roledescription="geoshape" transform="translate(0,0)" d="M366.465,558.794L363.902,555.328L362.114,544.48L369.515,557.413ZM377.535,533.12L371.339,530.1L370.087,521.308L377.002,526.895ZM425.738,457.57L422.427,471.841L419.962,486.764L412.813,500.319L409.647,503.867L401.245,501.898L392.342,511.221L392.425,510.873L392.024,510.441L391.969,510.673L387.999,509.025L385.313,510.437L378.898,506.387L381.52,503.154L379.814,494.924L377.427,490.944L366.628,489.239L359.674,486.182L368.252,481.225L373.443,482.552L376.663,476.858L372.354,446.817L372.283,445.079Z" fill="rgb(159, 216, 155)" stroke="black" stroke-width="0.5"/><path aria-label="Enrollment % (High Income): 4.32272808215; County: Riverside; CS Enrollment %: 4.32; Income: $89,672; AP CS Students: 748; Non-AP CS Students: 5078; Overall Enrollment: 134,776" role="graphics-symbol" aria-roledescription="geoshape" transform="translate(0,0)" d="M544.197,561.782L478.763,548.816L436.662,539.565L427.289,537.17L422.281,532.605L416.376,530.516L422.396,523.307L417.67,519.071L413.619,509.077L420.732,501.45L434.966,506.331L448.139,509.301L448.504,507.672L520.088,522.875L520.576,520.51L559.842,528.046L559.038,531.292L553.472,535.97L552.774,548.776L549.928,556.447Z" fill="rgb(167, 219, 162)" stroke="black" stroke-width="0.5"/><path aria-label="Enrollment % (High Income): 5.51258348112; County: Orange; CS Enrollment %: 5.51; Income: $113,702; AP CS Students: 2357; Non-AP CS Students: 6409; Overall Enrollment: 159,018" role="graphics-symbol" aria-roledescription="geoshape" transform="translate(0,0)" d="M409.647,503.867L413.619,509.077L417.67,519.071L422.396,523.307L416.376,530.516L411.07,536.02L400.908,521.171L400.783,520.988L399.293,520.18L399.272,520.267L392.342,511.221L401.245,501.898Z" fill="rgb(154, 213, 150)" stroke="black" stroke-width="0.5"/><path aria-label="Enrollment % (High Income): 4.33798590359; County: San Diego; CS Enrollment %: 4.34; Income: $102,285; AP CS Students: 694; Non-AP CS Students: 6187; Overall Enrollment: 158,622" role="graphics-symbol" aria-roledescription="geoshape" transform="translate(0,0)" d="M478.763,548.816L474.998,567.934L474.02,567.785L468.552,592.465L421.595,586.902L423.288,579.412L418.832,575.869L418.282,568.6L420.114,567.245L420.007,555.096L414.27,539.663L411.07,536.02L416.376,530.516L422.281,532.605L427.289,537.17L436.662,539.565Z" fill="rgb(167, 219, 162)" stroke="black" stroke-width="0.5"/></g><g class="mark-group role-legend" role="graphics-symbol" aria-roledescription="legend" aria-label="Gradient legend titled 'Enrollment % (Low Income)' for fill color with values from 0 to 20"><g transform="translate(818,0)"><path class="background" aria-hidden="true" d="M0,0h145v216h-145Z" pointer-events="none"/><g><g class="mark-group role-legend-entry"><g transform="translate(0,16)"><path class="background" aria-hidden="true" d="M0,0h0v0h0Z" pointer-events="none"/><g><g class="mark-rect role-legend-gradient" pointer-events="none"><path d="M0,0h16v200h-16Z" fill="url(#gradient_50)" stroke="#ddd" stroke-width="0" opacity="1"/></g><g class="mark-text role-legend-label" pointer-events="none"><text text-anchor="start" transform="translate(18,198)" font-family="sans-serif" font-size="10px" fill="#000" opacity="1">0</text><text text-anchor="start" transform="translate(18,153)" font-family="sans-serif" font-size="10px" fill="#000" opacity="1">5</text><text text-anchor="start" transform="translate(18,103)" font-family="sans-serif" font-size="10px" fill="#000" opacity="1">10</text><text text-anchor="start" transform="translate(18,53)" font-family="sans-serif" font-size="10px" fill="#000" opacity="1">15</text><text text-anchor="start" transform="translate(18,8)" font-family="sans-serif" font-size="10px" fill="#000" opacity="1">20</text></g></g><path class="foreground" aria-hidden="true" d="" pointer-events="none" display="none"/></g></g><g class="mark-text role-legend-title" pointer-events="none"><text text-anchor="start" transform="translate(0,9)" font-family="sans-serif" font-size="11px" font-weight="bold" fill="#000" opacity="1">Enrollment % (Low Income)</text></g></g><path class="foreground" aria-hidden="true" d="" pointer-events="none" display="none"/></g></g><g class="mark-group role-legend" role="graphics-symbol" aria-roledescription="legend" aria-label="Gradient legend titled 'Enrollment % (High Income)' for fill color with values from 0 to 20"><g transform="translate(818,224)"><path class="background" aria-hidden="true" d="M0,0h147v216h-147Z" pointer-events="none"/><g><g class="mark-group role-legend-entry"><g transform="translate(0,16)"><path class="background" aria-hidden="true" d="M0,0h0v0h0Z" pointer-events="none"/><g><g class="mark-rect role-legend-gradient" pointer-events="none"><path d="M0,0h16v200h-16Z" fill="url(#gradient_51)" stroke="#ddd" stroke-width="0" opacity="1"/></g><g class="mark-text role-legend-label" pointer-events="none"><text text-anchor="start" transform="translate(18,198)" font-family="sans-serif" font-size="10px" fill="#000" opacity="1">0</text><text text-anchor="start" transform="translate(18,153)" font-family="sans-serif" font-size="10px" fill="#000" opacity="1">5</text><text text-anchor="start" transform="translate(18,103)" font-family="sans-serif" font-size="10px" fill="#000" opacity="1">10</text><text text-anchor="start" transform="translate(18,53)" font-family="sans-serif" font-size="10px" fill="#000" opacity="1">15</text><text text-anchor="start" transform="translate(18,8)" font-family="sans-serif" font-size="10px" fill="#000" opacity="1">20</text></g></g><path class="foreground" aria-hidden="true" d="" pointer-events="none" display="none"/></g></g><g class="mark-text role-legend-title" pointer-events="none"><text text-anchor="start" transform="translate(0,9)" font-family="sans-serif" font-size="11px" font-weight="bold" fill="#000" opacity="1">Enrollment % (High Income)</text></g></g><path class="foreground" aria-hidden="true" d="" pointer-events="none" display="none"/></g></g><g class="mark-group role-title"><g transform="translate(400,-17.5)"><path class="background" aria-hidden="true" d="M0,0h0v0h0Z" pointer-events="none"/><g><g class="mark-text role-title-text" role="graphics-symbol" aria-roledescription="title" aria-label="Title text 'CS Enrollment % by County (Red: Below Median Income | Blue: Above)'" pointer-events="none"><text text-anchor="middle" transform="translate(0,10)" font-family="sans-serif" font-size="13px" font-weight="bold" fill="#000" opacity="1">CS Enrollment % by County (Red: Below Median Income | Blue: Above)</text></g></g><path class="foreground" aria-hidden="true" d="" pointer-events="none" display="none"/></g></g></g><path class="foreground" aria-hidden="true" d="" display="none"/></g></g></g><defs><linearGradient id="gradient_50" x1="0" x2="0" y1="1" y2="0"><stop offset="0" stop-color="rgb(253, 201, 180)"/><stop offset="0.05" stop-color="rgb(253, 191, 167)"/><stop offset="0.1" stop-color="rgb(252, 180, 154)"/><stop offset="0.15" stop-color="rgb(252, 169, 141)"/><stop offset="0.2" stop-color="rgb(252, 158, 128)"/><stop offset="0.25" stop-color="rgb(252, 147, 116)"/><stop offset="0.3" stop-color="rgb(252, 135, 103)"/><stop offset="0.35" stop-color="rgb(251, 123, 92)"/><stop offset="0.4" stop-color="rgb(250, 112, 81)"/><stop offset="0.45" stop-color="rgb(248, 100, 72)"/><stop offset="0.5" stop-color="rgb(246, 87, 63)"/><stop offset="0.55" stop-color="rgb(241, 75, 55)"/><stop offset="0.6" stop-color="rgb(236, 63, 47)"/><stop offset="0.65" stop-color="rgb(228, 53, 42)"/><stop offset="0.7" stop-color="rgb(220, 42, 37)"/><stop offset="0.75" stop-color="rgb(210, 35, 33)"/><stop offset="0.8" stop-color="rgb(200, 27, 29)"/><stop offset="0.85" stop-color="rgb(189, 23, 27)"/><stop offset="0.9" stop-color="rgb(178, 18, 24)"/><stop offset="0.95" stop-color="rgb(165, 15, 22)"/><stop offset="1" stop-color="rgb(151, 11, 19)"/></linearGradient><linearGradient id="gradient_51" x1="0" x2="0" y1="1" y2="0"><stop offset="0" stop-color="rgb(211, 238, 205)"/><stop offset="0.05" stop-color="rgb(202, 234, 196)"/><stop offset="0.1" stop-color="rgb(192, 230, 186)"/><stop offset="0.15" stop-color="rgb(182, 226, 176)"/><stop offset="0.2" stop-color="rgb(171, 221, 165)"/><stop offset="0.25" stop-color="rgb(160, 216, 155)"/><stop offset="0.3" stop-color="rgb(148, 211, 145)"/><stop offset="0.35" stop-color="rgb(136, 205, 135)"/><stop offset="0.4" stop-color="rgb(123, 199, 125)"/><stop offset="0.45" stop-color="rgb(110, 193, 117)"/><stop offset="0.5" stop-color="rgb(96, 186, 108)"/><stop offset="0.55" stop-color="rgb(83, 179, 101)"/><stop offset="0.6" stop-color="rgb(70, 171, 94)"/><stop offset="0.65" stop-color="rgb(60, 163, 88)"/><stop offset="0.7" stop-color="rgb(50, 154, 81)"/><stop offset="0.75" stop-color="rgb(41, 146, 74)"/><stop offset="0.8" stop-color="rgb(32, 137, 67)"/><stop offset="0.85" stop-color="rgb(23, 128, 60)"/><stop offset="0.9" stop-color="rgb(14, 119, 53)"/><stop offset="0.95" stop-color="rgb(9, 110, 47)"/><stop offset="1" stop-color="rgb(3, 100, 41)"/></linearGradient></defs></svg>